<?xml version="1.0" standalone="no"?>
<!DOCTYPE svg PUBLIC "-//W3C//DTD SVG 20010904//EN"
 "http://www.w3.org/TR/2001/REC-SVG-20010904/DTD/svg10.dtd">
<svg version="1.0" xmlns="http://www.w3.org/2000/svg"
 width="444.000000pt" height="450.000000pt" viewBox="0 0 444.000000 450.000000"
 preserveAspectRatio="xMidYMid meet">

<g transform="translate(0.000000,450.000000) scale(0.100000,-0.100000)"
fill="#000000" stroke="none">
<path d="M1950 4486 c-442 -57 -830 -234 -1122 -512 -31 -30 -60 -54 -64 -54
-4 0 -44 24 -88 54 -85 56 -236 135 -297 155 -72 23 -105 22 -133 -4 -14 -13
-26 -20 -26 -15 0 5 10 16 22 24 18 13 19 16 6 16 -21 0 -168 -193 -168 -220
0 -11 5 -30 11 -44 10 -21 7 -31 -30 -84 -41 -58 -42 -61 -30 -100 11 -36 10
-43 -10 -68 -29 -36 -27 -61 10 -119 116 -183 503 -464 664 -483 25 -2 45 -8
45 -12 0 -4 -20 -50 -44 -102 -56 -120 -100 -251 -127 -382 -27 -131 -37 -395
-19 -533 25 -204 103 -447 195 -607 25 -43 43 -82 39 -85 -13 -13 -249 -5
-289 10 -49 18 -49 30 2 142 35 75 35 78 18 98 -38 41 -145 82 -226 87 -78 4
-137 -13 -140 -41 -1 -6 -2 -113 -3 -237 -2 -168 -7 -246 -20 -310 -20 -98
-49 -199 -72 -252 -20 -46 -13 -77 28 -123 47 -54 209 -157 224 -142 3 2 -10
10 -28 18 -65 26 -161 93 -189 132 -33 46 -35 67 -13 128 8 24 26 85 39 134
14 50 22 70 19 45 -4 -25 -15 -74 -26 -109 -11 -35 -22 -71 -24 -80 -3 -9 4 0
14 19 45 80 86 288 98 492 l7 118 34 -21 c19 -12 35 -20 37 -18 2 2 -20 27
-49 55 l-52 52 -7 -192 c-3 -105 -10 -209 -16 -231 -9 -38 -9 -38 -3 10 3 28
7 151 9 275 2 124 4 228 4 232 0 17 63 38 112 38 48 0 135 -17 126 -25 -1 -1
-31 2 -65 7 -34 6 -77 8 -95 4 -94 -17 -89 -68 16 -172 121 -119 245 -166 426
-162 241 4 287 0 334 -35 16 -12 7 -13 -65 -10 -73 4 -90 1 -129 -19 l-45 -23
0 -235 c0 -233 -6 -295 -41 -418 l-15 -52 -107 -2 -107 -2 102 -3 c57 -2 103
-7 103 -11 0 -4 -14 -32 -31 -62 -49 -88 -51 -95 -27 -125 11 -14 52 -42 90
-61 70 -35 263 -104 289 -104 8 1 -38 18 -102 39 -173 58 -279 118 -279 158 0
20 56 114 63 107 3 -4 29 29 57 72 28 43 54 81 57 84 18 16 -86 -174 -117
-216 -21 -28 -35 -55 -32 -61 24 -35 165 -97 329 -143 160 -45 157 -35 -7 19
-175 58 -263 99 -256 121 3 8 27 69 54 136 28 67 60 157 72 200 12 43 24 87
26 97 3 9 1 17 -5 17 -6 0 -11 -6 -11 -12 0 -7 -17 -40 -36 -73 -20 -33 -33
-51 -29 -40 22 61 56 208 71 307 9 62 17 114 18 115 0 1 39 -9 85 -23 46 -13
97 -24 115 -23 21 0 5 8 -54 25 -47 14 -118 40 -159 59 -40 19 -75 35 -76 35
-2 0 -1 -57 2 -127 6 -134 -6 -265 -32 -368 -18 -71 -66 -197 -73 -191 -2 3
10 40 26 83 17 43 35 114 42 158 13 84 15 329 5 430 -6 55 -5 62 18 83 70 66
203 48 452 -62 97 -42 138 -49 143 -22 5 22 -56 88 -114 122 -23 13 -74 33
-115 44 -41 10 -62 19 -48 19 38 1 128 -28 176 -56 46 -26 123 -107 123 -128
0 -22 -27 -36 -57 -30 -22 5 -24 4 -12 -4 16 -10 15 -61 0 -61 -19 0 -230 113
-261 140 -31 26 -32 29 -10 21 14 -4 39 -11 55 -15 l30 -6 -25 14 c-74 41
-222 58 -285 32 -64 -27 -41 -59 83 -111 174 -73 395 -121 694 -152 135 -13
267 -17 603 -17 442 0 584 9 835 50 271 45 537 141 548 197 9 48 -148 60 -263
21 -61 -20 -83 -37 -31 -23 21 6 40 8 43 6 8 -9 -87 -68 -181 -113 -51 -24
-96 -44 -98 -44 -3 0 -8 12 -11 26 -3 19 1 28 17 35 16 7 14 8 -12 3 -34 -6
-62 8 -62 31 0 7 18 33 41 58 70 80 225 139 354 136 17 -1 -11 -7 -60 -14
-126 -19 -194 -47 -260 -107 -52 -47 -67 -79 -45 -93 13 -8 99 20 172 56 86
43 196 77 258 79 97 4 118 1 147 -24 l28 -24 1 -238 c2 -290 17 -376 89 -521
31 -61 45 -99 40 -112 -15 -48 -181 -121 -425 -188 -47 -12 -68 -20 -46 -17
106 15 357 103 423 148 78 52 79 60 33 148 -22 42 -40 79 -40 82 0 3 48 7 108
9 l107 3 -112 2 -112 2 -11 38 c-28 99 -40 233 -39 433 1 135 -2 213 -10 226
-19 37 -91 57 -179 50 -69 -5 -75 -4 -57 9 11 8 31 17 45 20 14 2 38 9 53 14
16 5 99 6 186 3 179 -7 216 -1 328 53 113 54 233 177 233 239 0 27 -67 48
-133 41 -32 -3 -66 -10 -75 -16 -13 -8 -9 -9 18 -5 54 8 66 -5 51 -54 -12 -41
-112 -161 -135 -161 -11 0 -47 86 -52 125 -5 39 8 55 71 86 81 40 184 51 233
25 18 -9 32 -20 33 -24 0 -4 2 -106 4 -227 4 -256 21 -391 66 -521 24 -66 30
-98 25 -120 -9 -36 -88 -112 -150 -143 -25 -14 -44 -26 -42 -28 9 -9 97 48
148 97 74 72 79 92 40 179 -52 115 -64 205 -69 504 l-5 269 -32 19 c-64 41
-244 8 -325 -60 l-35 -29 36 -78 c19 -44 38 -91 42 -105 5 -25 2 -27 -42 -40
-46 -14 -274 -20 -286 -8 -3 3 14 40 37 82 93 162 172 407 197 610 18 139 8
403 -20 531 -29 135 -74 273 -126 385 -24 52 -44 97 -44 100 0 4 14 8 30 9
149 11 516 266 656 455 55 74 62 107 33 148 -20 28 -20 35 -10 71 12 39 11 42
-29 99 -39 56 -41 61 -30 95 7 19 9 41 6 49 -3 8 -37 57 -76 109 l-72 95 -49
-1 c-28 0 -47 -4 -43 -9 3 -6 -5 -7 -22 -3 -15 4 -25 3 -21 -2 3 -5 -6 -10
-20 -10 -34 -3 -180 -78 -286 -148 l-87 -59 -63 60 c-220 211 -551 384 -887
462 -226 54 -568 74 -780 47z m387 -16 c428 -26 804 -160 1128 -400 96 -71
235 -202 235 -221 0 -7 -37 24 -82 67 -289 277 -659 453 -1088 520 -161 25
-493 25 -645 0 -404 -67 -747 -234 -1033 -502 -57 -53 -106 -93 -110 -90 -9
10 149 157 253 235 303 227 672 364 1048 390 67 4 124 9 127 9 3 1 78 -3 167
-8z m-104 -47 c-13 -2 -35 -2 -50 0 -16 2 -5 4 22 4 28 0 40 -2 28 -4z m-198
-14 c-55 -4 -131 -13 -168 -20 -38 -6 -71 -9 -73 -6 -3 3 35 10 83 17 48 6 95
13 103 15 8 1 47 3 85 2 63 0 60 -1 -30 -8z m571 -19 c122 -22 253 -57 357
-96 102 -39 76 -37 -37 2 -177 62 -346 97 -544 114 l-107 9 110 -4 c61 -3 160
-14 221 -25z m-56 -25 c379 -64 715 -219 975 -449 l67 -59 -106 -99 c-58 -55
-129 -131 -157 -169 -46 -61 -54 -68 -69 -57 -356 260 -698 370 -1105 355
-355 -13 -647 -119 -972 -353 -20 -15 -23 -13 -54 32 -33 48 -161 182 -235
246 l-42 36 52 49 c262 252 627 421 1031 478 131 19 481 13 615 -10z m-870
-15 c-58 -15 -136 -40 -174 -54 -38 -15 -71 -24 -73 -22 -6 6 100 44 202 73
50 13 95 26 100 28 6 2 19 3 30 3 11 0 -27 -12 -85 -28z m-314 -111 c-32 -17
-60 -28 -63 -25 -6 5 94 54 112 55 6 0 -16 -14 -49 -30z m1750 -11 c100 -46
218 -118 304 -183 74 -57 240 -213 240 -227 0 -3 -26 21 -57 54 -62 65 -208
186 -283 233 -25 16 -99 57 -165 92 -130 68 -147 82 -39 31z m-1826 -22 c0 -2
-37 -25 -82 -51 -119 -69 -219 -145 -333 -254 -89 -85 -92 -85 -14 0 95 101
429 340 429 305z m2920 -81 c19 -22 8 -25 -12 -3 -10 10 -14 18 -9 18 5 0 14
-7 21 -15z m-3887 -12 c-7 -2 -21 -2 -30 0 -10 3 -4 5 12 5 17 0 24 -2 18 -5z
m3830 0 c-7 -2 -21 -2 -30 0 -10 3 -4 5 12 5 17 0 24 -2 18 -5z m-3730 -29
c68 -29 246 -132 293 -169 54 -45 7 -26 -82 33 -123 81 -177 111 -242 138 -32
13 -51 24 -44 24 7 0 41 -12 75 -26z m3623 1 c-52 -21 -149 -77 -289 -167 -26
-17 -50 -28 -53 -25 -6 5 105 82 189 131 59 34 177 85 197 85 8 0 -11 -10 -44
-24z m293 -154 c0 -9 -4 -25 -8 -35 -6 -17 -16 -9 -63 54 -52 68 -55 75 -45
105 l10 33 53 -71 c30 -39 54 -78 53 -86z m-4118 84 c-91 -123 -105 -138 -112
-119 -14 36 -9 51 43 120 l52 68 12 -29 c7 -17 9 -34 5 -40z m388 -225 c78
-77 176 -138 241 -151 l35 -7 -31 -1 c-37 -1 -130 44 -198 96 -65 50 -136 138
-135 166 2 20 2 20 6 -3 3 -14 39 -58 82 -100z m3285 48 c-62 -88 -219 -197
-296 -204 -40 -3 -41 -3 -8 4 19 5 64 24 100 43 80 42 219 175 221 210 1 18 2
20 6 6 3 -10 -8 -36 -23 -59z m328 -92 c7 4 -7 -14 -32 -41 -48 -51 -238 -214
-206 -177 16 19 17 24 5 39 -12 14 -12 16 0 8 22 -13 -19 51 -56 87 l-32 31
92 87 92 88 62 -65 c40 -42 67 -62 75 -57z m-3777 32 l93 -82 -40 -46 c-22
-25 -45 -54 -51 -65 -10 -19 -9 -19 9 -5 19 14 19 14 0 -8 -19 -22 -19 -22 0
-44 28 -33 -80 57 -162 135 l-72 68 61 64 c34 35 64 64 65 64 2 1 46 -36 97
-81z m1957 71 c270 -29 580 -149 784 -303 62 -46 69 -55 67 -83 -2 -26 12 -51
75 -135 70 -94 80 -103 113 -106 31 -3 43 -12 83 -63 29 -37 53 -59 66 -59 24
0 57 -50 121 -185 102 -217 147 -407 156 -655 10 -307 -55 -587 -198 -844
l-55 -101 -65 3 c-35 2 -65 5 -67 7 -2 2 12 27 31 57 94 145 168 328 209 509
20 91 23 131 23 314 0 231 -10 300 -67 475 -180 556 -655 958 -1233 1045 -114
17 -326 19 -430 5 -349 -50 -663 -212 -909 -471 -211 -222 -346 -491 -398
-794 -17 -102 -19 -147 -15 -305 3 -115 12 -214 22 -260 38 -174 121 -378 207
-511 21 -34 38 -63 36 -64 -2 -2 -32 -5 -66 -6 l-64 -3 -31 50 c-67 107 -137
279 -176 428 -40 153 -54 288 -48 466 8 248 54 442 156 655 65 136 97 185 121
185 13 0 37 22 66 59 40 51 52 60 83 63 33 3 43 12 114 107 66 88 77 107 72
131 -5 24 0 33 37 63 71 58 167 116 283 172 280 135 584 188 897 154z m-2305
-105 l-42 -55 -9 30 c-7 24 -3 36 25 74 34 46 34 46 51 26 17 -20 16 -23 -25
-75z m623 88 c0 -14 -39 -46 -47 -39 -3 4 2 16 12 27 19 21 35 26 35 12z
m3035 -12 c10 -11 15 -23 12 -27 -8 -7 -47 25 -47 39 0 14 16 9 35 -12z m618
-36 c23 -35 27 -49 20 -70 -9 -26 -9 -26 -51 30 -36 48 -41 58 -30 75 16 25
28 19 61 -35z m-770 23 c-4 -7 -39 -41 -78 -74 -71 -61 -141 -133 -183 -188
l-23 -30 18 35 c19 37 261 285 270 276 3 -2 1 -11 -4 -19z m-2666 -72 c83 -77
193 -207 193 -228 0 -5 -16 13 -36 40 -52 68 -78 96 -169 176 -44 39 -84 76
-88 84 -19 32 16 7 100 -72z m-117 31 c0 -2 -8 -10 -17 -17 -16 -13 -17 -12
-4 4 13 16 21 21 21 13z m2821 -13 c13 -16 12 -17 -3 -4 -10 7 -18 15 -18 17
0 8 8 3 21 -13z m-3327 -141 c28 -26 64 -57 79 -69 l29 -22 -41 -49 c-45 -53
-54 -76 -18 -46 20 17 20 17 -2 -8 -24 -27 -24 -27 -50 -9 -14 10 -57 48 -95
84 l-69 65 49 49 c27 28 53 51 58 51 5 1 32 -19 60 -46z m3925 -3 l54 -52 -69
-64 c-38 -35 -81 -73 -95 -83 -26 -19 -27 -19 -45 3 -16 18 -16 19 -1 8 30
-23 19 1 -24 51 l-40 48 33 28 c18 15 53 46 78 69 25 23 48 43 51 43 3 0 29
-23 58 -51z m-4181 -21 c-10 -16 -24 -28 -29 -28 -15 0 -10 52 7 72 16 17 18
17 30 1 10 -15 9 -22 -8 -45z m4362 2 c0 -41 -11 -43 -35 -8 -17 25 -20 36
-11 50 9 16 12 16 28 1 10 -9 18 -28 18 -43z m-3919 -97 c13 -16 12 -17 -3 -4
-10 7 -18 15 -18 17 0 8 8 3 21 -13z m3459 13 c0 -2 -8 -10 -17 -17 -16 -13
-17 -12 -4 4 13 16 21 21 21 13z m-3685 -93 l59 -53 -21 -22 c-11 -13 -23 -32
-27 -42 -7 -21 -9 -20 -123 88 l-51 48 31 33 c37 37 29 40 132 -52z m4017 53
l35 -35 -46 -43 c-122 -114 -120 -113 -127 -92 -4 10 -16 29 -27 41 l-20 23
63 57 c35 32 69 63 74 70 6 7 12 12 13 13 0 0 16 -15 35 -34z m-1875 -9 c12
-17 27 -51 34 -74 7 -24 16 -43 21 -43 5 0 7 10 3 23 -6 21 -6 21 14 -3 11
-14 39 -58 62 -97 51 -89 49 -114 -12 -132 -37 -11 -43 -11 -59 7 -10 11 -37
66 -60 123 -52 130 -88 169 -155 169 -25 0 -45 -4 -45 -10 0 -5 16 -10 35 -10
41 0 68 -25 91 -87 10 -24 20 -39 24 -33 8 13 90 -166 90 -197 0 -28 -10 -33
-65 -39 -34 -3 -47 -1 -51 11 -4 8 -11 15 -18 15 -6 0 -24 39 -41 86 -32 95
-56 137 -96 166 -22 17 -33 18 -70 10 l-44 -10 43 -1 c54 -1 76 -24 98 -98 12
-41 19 -53 23 -40 5 13 17 -7 42 -69 34 -84 40 -127 15 -122 -6 1 -26 -2 -44
-6 -46 -11 -66 13 -104 124 -38 116 -69 150 -132 150 -55 0 -62 -17 -9 -22 30
-2 42 -10 60 -37 13 -19 23 -45 23 -57 0 -24 15 -33 22 -13 2 5 18 -29 35 -77
17 -47 29 -93 26 -100 -8 -21 -113 -19 -113 1 0 8 -7 15 -15 15 -8 0 -17 14
-21 35 -3 19 -10 32 -15 29 -5 -3 -9 6 -9 20 0 14 -4 26 -10 26 -5 0 -10 -13
-10 -29 0 -24 -6 -31 -40 -45 -79 -32 -134 -18 -194 49 l-28 30 6 -30 c2 -16
8 -39 12 -50 5 -14 -6 -7 -35 20 -26 24 -41 33 -41 24 0 -23 53 -102 86 -128
l29 -23 -30 6 c-27 6 -32 3 -44 -26 -39 -98 -90 -262 -101 -325 -12 -66 -11
-77 8 -140 12 -37 24 -84 27 -103 l6 -35 -26 40 c-15 22 -24 31 -20 20 23 -69
45 -175 45 -216 0 -26 4 -50 9 -54 15 -9 24 79 19 186 -3 55 -3 97 0 94 3 -2
13 -37 23 -77 l19 -73 -3 90 c-3 68 -10 105 -29 153 l-26 63 48 142 c27 78 49
138 49 132 0 -5 -8 -59 -19 -119 -11 -60 -20 -114 -20 -120 0 -27 20 20 55
131 22 67 40 121 42 119 2 -1 -9 -63 -23 -137 -24 -122 -25 -141 -15 -215 6
-44 11 -96 10 -115 l-1 -34 -10 35 c-28 105 -40 141 -44 137 -2 -2 1 -28 7
-58 19 -86 7 -224 -24 -289 -14 -30 -25 -56 -23 -58 18 -17 136 175 136 220 0
33 17 18 24 -19 9 -55 7 -122 -5 -173 -12 -54 -76 -184 -101 -207 -10 -9 -18
-21 -18 -26 0 -6 10 -2 22 9 12 10 18 13 13 5 -5 -8 -24 -28 -42 -44 -43 -38
-36 -44 16 -17 23 11 41 18 41 15 0 -10 -122 -66 -172 -79 -31 -8 -46 -16 -39
-20 7 -5 74 -10 150 -13 l137 -6 23 62 c12 35 25 61 27 58 3 -2 0 -16 -6 -31
-30 -79 1 -154 113 -272 77 -82 77 -82 50 -88 -35 -6 -153 -10 -253 -6 l-75 2
113 19 c63 10 121 23 129 27 9 6 -33 11 -109 15 -125 6 -248 31 -310 63 l-33
17 19 -21 c10 -12 37 -31 60 -42 l41 -22 -40 6 c-22 4 -53 9 -70 12 -25 5 -21
0 26 -29 30 -19 80 -44 110 -55 69 -27 31 -28 -46 -2 -75 26 -130 59 -179 107
l-39 39 -23 -23 c-15 -14 -35 -23 -56 -23 l-33 -1 28 -24 c34 -30 29 -31 -23
-5 -50 26 -70 55 -70 105 l0 40 21 -25 21 -25 -6 28 c-4 15 -5 27 -4 27 2 0
19 -5 38 -10 42 -13 243 -13 285 -1 l30 8 -25 6 c-14 4 -34 8 -45 10 -11 3 0
5 25 6 49 2 167 25 177 35 4 3 -36 6 -88 6 -142 0 -250 33 -309 93 -64 66
-118 219 -106 304 6 44 37 126 66 175 17 28 17 27 13 -30 -3 -55 -1 -50 73
133 62 154 205 509 231 575 20 51 -32 -35 -155 -255 -77 -137 -156 -274 -176
-304 -103 -152 -141 -294 -113 -426 16 -77 15 -99 -2 -38 -19 64 -34 193 -29
244 3 27 2 49 -2 49 -23 0 -27 -217 -6 -297 8 -29 11 -53 8 -53 -15 1 -61 78
-72 120 -23 84 -1 226 57 365 23 56 124 218 142 230 5 2 -4 -29 -21 -71 -55
-142 -22 -99 92 121 73 140 84 155 64 89 -8 -26 -10 -44 -4 -38 13 13 91 244
82 244 -4 0 -27 -32 -51 -70 -25 -39 -46 -70 -47 -70 -3 0 99 229 119 265 l16
30 -5 -40 -4 -40 15 33 c12 26 13 41 5 71 -18 69 16 121 100 152 33 12 60 26
60 30 0 17 276 147 287 136 2 -2 -24 -14 -58 -27 -39 -14 -57 -25 -49 -30 8
-5 4 -9 -13 -14 -35 -8 -121 -46 -116 -50 2 -2 42 4 89 15 47 10 104 19 128
19 49 0 58 19 10 21 -26 1 -15 7 52 29 73 25 80 29 50 30 -32 2 -29 4 25 18
51 13 56 17 35 22 -19 5 -12 8 32 14 32 4 66 5 75 2 10 -3 32 -2 48 3 17 5 48
10 70 10 34 1 43 -4 62 -32z m-324 -4 c-7 -2 -19 -2 -25 0 -7 3 -2 5 12 5 14
0 19 -2 13 -5z m-46 -9 c-3 -3 -12 -4 -19 -1 -8 3 -5 6 6 6 11 1 17 -2 13 -5z
m1833 1 c0 -2 -10 -9 -22 -15 -22 -11 -22 -10 -4 4 21 17 26 19 26 11z m-2771
-87 c-47 -68 -81 -108 -92 -108 -6 0 3 15 19 33 17 17 43 49 58 70 33 45 46
50 15 5z m2294 -71 c15 -17 25 -32 22 -35 -8 -8 -31 16 -74 81 -34 50 -36 55
-9 23 18 -22 45 -53 61 -69z m292 43 c-3 -5 -12 -10 -18 -10 -7 0 -6 4 3 10
19 12 23 12 15 0z m-2789 -155 c-50 -61 -57 -58 -9 4 21 27 40 47 42 45 2 -2
-13 -24 -33 -49z m2643 -5 l43 -55 -46 50 c-25 27 -46 54 -46 59 0 5 1 7 3 5
2 -2 22 -29 46 -59z m121 -95 l25 -30 -27 24 c-16 14 -28 29 -28 34 0 6 1 8 3
6 1 -2 13 -17 27 -34z m-2899 -8 l-24 -22 19 27 c10 14 21 24 23 22 3 -3 -6
-15 -18 -27z m1786 1 c-3 -8 -6 -5 -6 6 -1 11 2 17 5 13 3 -3 4 -12 1 -19z
m-12 -57 c-4 -17 -10 -33 -14 -36 -5 -2 -3 13 2 35 13 46 22 46 12 1z m-260
-21 c-3 -5 -12 -10 -18 -10 -7 0 -6 4 3 10 19 12 23 12 15 0z m323 -19 c4 -25
-28 -66 -57 -74 -13 -3 -17 1 -15 17 1 12 3 27 3 34 1 18 40 54 54 49 7 -2 13
-14 15 -26z m-218 -40 c-5 -11 -15 -23 -21 -27 -6 -3 -3 5 6 20 20 30 30 35
15 7z m-514 -106 c-3 -8 -15 -62 -27 -120 -12 -58 -24 -103 -26 -101 -4 4 24
185 33 219 3 9 10 17 16 17 5 0 8 -7 4 -15z m81 -102 c-3 -10 -5 -4 -5 12 0
17 2 24 5 18 2 -7 2 -21 0 -30z m14 -115 c24 -34 79 -153 79 -170 0 -7 -13 17
-29 54 -34 80 -69 131 -83 122 -8 -5 -9 1 -5 17 4 13 8 35 8 49 2 18 3 15 6
-10 3 -19 13 -47 24 -62z m-64 -20 c-6 -65 -4 -74 18 -99 35 -42 65 -132 65
-195 0 -58 14 -65 25 -13 4 17 9 28 11 26 7 -7 -17 -95 -37 -142 -10 -22 -34
-62 -54 -90 -37 -50 -37 -50 -28 -15 4 19 8 98 7 175 0 118 -3 148 -21 190
-20 49 -20 53 -5 143 9 50 18 92 21 92 2 0 1 -32 -2 -72z m1456 -135 c72 -21
171 -74 240 -129 68 -54 71 -72 3 -21 -55 42 -143 77 -211 83 -48 5 -47 4 27
-19 84 -26 137 -57 192 -112 46 -45 46 -58 1 -49 -19 3 -96 9 -172 13 l-138 7
95 11 95 12 -120 -4 c-124 -4 -177 -15 -328 -66 -95 -33 -142 -32 -173 2 -15
16 -15 22 -3 51 30 73 101 130 224 180 59 25 64 28 30 23 -71 -11 -181 -70
-240 -129 -30 -30 -55 -52 -55 -49 0 14 67 95 101 123 50 40 136 79 197 90 60
11 167 3 235 -17z m312 -89 c-27 -23 -22 -25 19 -8 11 4 15 -7 18 -50 1 -31 3
-56 3 -56 0 0 -26 24 -58 54 l-57 54 42 15 c61 22 67 20 33 -9z m-1182 -13
c25 -11 67 -39 92 -62 44 -41 102 -125 93 -134 -3 -3 -31 6 -64 19 -73 30
-198 48 -270 40 -81 -10 -73 -19 20 -20 44 -1 101 -7 126 -14 128 -34 226
-115 255 -209 6 -21 2 -19 -46 17 -56 41 -158 97 -165 89 -2 -2 14 -16 36 -32
57 -40 128 -119 150 -168 39 -85 17 -194 -50 -250 -62 -53 -109 -70 -200 -75
-105 -5 -184 13 -295 67 -44 22 -82 37 -85 35 -2 -3 27 -35 65 -71 60 -56 64
-62 30 -43 -153 89 -203 155 -204 274 -1 69 -14 65 -29 -9 -20 -94 11 -159
122 -262 81 -75 129 -110 201 -144 74 -36 135 -37 225 -5 106 37 108 38 45 7
-183 -89 -311 -55 -501 134 -55 55 -108 116 -117 137 -34 72 -12 176 58 274
60 84 147 129 310 161 l40 8 -54 3 c-54 3 -159 -10 -195 -24 -18 -7 -19 -4
-13 39 26 185 238 296 420 218z m1208 -198 c4 -4 -56 -9 -134 -11 -233 -4
-266 -20 -44 -21 l187 -1 0 -25 c0 -17 -6 -25 -17 -26 -17 -1 -16 -2 0 -6 15
-4 17 -11 11 -36 -3 -18 -7 -33 -8 -34 -1 -1 -35 6 -76 17 -216 55 -467 64
-580 22 l-55 -21 34 29 c64 55 178 97 319 120 65 10 351 5 363 -7z m-186 -158
c66 -9 134 -19 151 -23 l31 -7 -14 -69 c-19 -95 -68 -241 -79 -239 -5 1 -27 4
-49 7 l-40 6 43 -16 c50 -19 50 -20 -11 -136 l-41 -78 -35 27 c-123 91 -219
174 -292 251 l-83 87 37 -70 37 -70 -41 45 c-90 97 -117 221 -56 260 64 40
241 50 442 25z m-2355 -238 c24 -27 65 -60 90 -73 25 -14 34 -22 20 -18 -61
15 -143 89 -175 156 -15 32 -15 33 2 8 10 -14 38 -47 63 -73z m1968 -212 c23
-15 42 -30 42 -32 0 -7 -91 46 -113 65 -9 8 -20 12 -24 9 -13 -13 163 -172
240 -217 69 -40 75 -46 56 -54 -13 -7 -31 -6 -52 2 -33 13 -51 7 -27 -8 12 -8
11 -10 -5 -10 -12 0 -44 24 -75 55 l-55 56 72 -37 c40 -21 76 -35 79 -31 3 3
-12 15 -35 26 -92 47 -208 182 -255 294 -15 38 -14 37 47 -26 34 -35 81 -76
105 -92z m-2673 42 c17 -8 39 -25 50 -38 11 -13 13 -18 5 -12 -12 9 -15 7 -17
-15 -2 -41 -36 -132 -49 -132 -20 0 -122 117 -134 155 -19 57 -10 66 58 62 31
-2 71 -11 87 -20z m732 1 c-3 -8 -6 -5 -6 6 -1 11 2 17 5 13 3 -3 4 -12 1 -19z
m50 -90 c49 -44 213 -100 383 -132 51 -9 64 -14 40 -15 l-34 -1 69 -70 c230
-232 549 -329 839 -256 83 22 286 106 286 119 0 3 -25 -1 -56 -9 -100 -27 -75
-10 34 23 l106 31 -34 -28 c-63 -52 -189 -123 -268 -151 -217 -76 -418 -56
-650 66 -121 64 -180 107 -283 204 -72 66 -83 73 -165 97 -217 62 -316 122
-314 187 1 7 7 -1 14 -18 7 -16 22 -38 33 -47z m2223 -51 c41 -16 43 -18 27
-34 -15 -15 -20 -15 -69 12 -65 34 -186 113 -193 126 -4 5 38 -13 92 -39 54
-26 118 -55 143 -65z m-460 68 c12 -19 37 -54 56 -77 27 -31 32 -43 22 -49
-17 -11 -269 -10 -328 1 -31 5 -13 7 60 4 58 -3 128 -1 155 4 42 8 45 10 17
11 -61 2 -242 33 -242 42 0 16 40 30 122 41 97 13 124 28 53 29 l-50 1 40 13
c61 20 72 18 95 -20z m413 -134 c38 -13 42 -18 29 -38 -10 -16 -80 19 -131 65
l-36 33 50 -24 c28 -13 67 -30 88 -36z m-1212 -13 c65 -33 97 -43 148 -47 64
-4 65 -5 26 -12 -22 -4 -71 -8 -110 -9 -44 0 -64 -4 -55 -9 28 -16 157 -34
213 -29 69 6 65 -3 -31 -60 -87 -53 -169 -76 -241 -69 -60 5 -155 37 -187 63
-18 14 -18 15 4 4 35 -17 114 -40 137 -39 11 0 -14 13 -56 28 -76 28 -152 68
-198 103 -37 28 -45 21 -22 -18 12 -20 20 -38 18 -40 -2 -3 -24 17 -48 43
l-44 48 55 8 c94 14 234 47 260 62 35 20 39 20 131 -27z m-1123 -65 c-10 -2
-28 -2 -40 0 -13 2 -5 4 17 4 22 1 32 -1 23 -4z m320 -253 c-7 -10 -14 -18
-15 -16 -6 6 9 36 18 36 5 0 4 -9 -3 -20z m1662 -15 c0 -5 -5 -3 -10 5 -5 8
-10 20 -10 25 0 6 5 3 10 -5 5 -8 10 -19 10 -25z m-266 -58 c4 -19 3 -26 -4
-22 -5 3 -10 18 -10 32 0 32 5 28 14 -10z"/>
<path d="M1805 3253 c-113 -13 -112 -13 -140 -53 -33 -47 -29 -75 16 -123 22
-23 26 -25 15 -7 -27 42 -21 85 17 114 43 33 52 33 31 1 -9 -14 -14 -25 -12
-25 3 0 39 16 81 35 42 19 83 35 91 35 9 0 16 4 16 9 0 6 -15 5 -36 -1 -20 -5
-38 -7 -42 -4 -3 3 2 6 11 6 9 0 19 5 22 10 6 10 -10 11 -70 3z"/>
<path d="M1537 3130 c9 -45 9 -80 -2 -104 -6 -14 -5 -17 3 -12 11 7 62 105 62
120 0 3 -11 4 -24 0 -17 -4 -27 0 -35 13 -10 14 -10 11 -4 -17z"/>
<path d="M4213 1453 c-56 -58 -57 -63 -8 -33 l33 20 6 -87 c18 -243 53 -447
92 -529 25 -53 25 -37 -1 41 -33 98 -56 269 -64 470 l-6 171 -52 -53z"/>
<path d="M480 1291 c20 -12 125 -31 169 -30 20 1 -2 7 -49 14 -47 6 -96 15
-110 19 -18 5 -21 4 -10 -3z"/>
<path d="M3921 1289 c-18 -6 -68 -14 -110 -18 -72 -8 -73 -8 -21 -10 53 -1
164 20 177 33 8 8 -4 6 -46 -5z"/>
<path d="M3565 1104 c-22 -13 -85 -37 -140 -55 -55 -17 -109 -35 -120 -40 -35
-16 64 2 147 26 l77 22 6 -41 c24 -160 40 -241 60 -311 13 -44 22 -81 21 -82
-1 -1 -19 30 -40 70 l-38 72 7 -49 c8 -56 61 -213 112 -334 23 -54 32 -87 26
-93 -20 -20 -169 -78 -281 -111 -64 -18 -108 -34 -98 -36 47 -10 372 105 430
151 l28 23 -45 64 c-42 62 -107 180 -107 197 0 4 22 -26 49 -68 57 -90 83
-112 47 -41 -67 131 -101 344 -89 549 3 65 2 113 -3 112 -5 0 -27 -12 -49 -25z"/>
<path d="M1483 941 c15 -5 91 -16 170 -25 429 -48 788 -48 1169 0 127 15 238
40 133 29 -335 -35 -388 -38 -705 -38 -302 0 -518 11 -755 38 -34 4 -36 3 -12
-4z"/>
<path d="M210 614 c0 -2 23 -15 51 -29 61 -31 188 -65 238 -64 24 0 9 6 -43
15 -44 8 -117 29 -163 48 -46 18 -83 32 -83 30z"/>
<path d="M4145 584 c-33 -14 -98 -32 -144 -41 -47 -9 -79 -19 -73 -21 24 -8
176 30 236 58 75 35 63 37 -19 4z"/>
<path d="M358 523 c7 -3 16 -2 19 1 4 3 -2 6 -13 5 -11 0 -14 -3 -6 -6z"/>
<path d="M4068 523 c7 -3 16 -2 19 1 4 3 -2 6 -13 5 -11 0 -14 -3 -6 -6z"/>
<path d="M4028 513 c7 -3 16 -2 19 1 4 3 -2 6 -13 5 -11 0 -14 -3 -6 -6z"/>
<path d="M453 503 c9 -2 23 -2 30 0 6 3 -1 5 -18 5 -16 0 -22 -2 -12 -5z"/>
<path d="M3968 503 c6 -2 18 -2 25 0 6 3 1 5 -13 5 -14 0 -19 -2 -12 -5z"/>
<path d="M1051 126 c7 -7 186 -46 206 -45 10 0 -29 11 -87 24 -109 25 -126 28
-119 21z"/>
<path d="M3238 93 c6 -2 18 -2 25 0 6 3 1 5 -13 5 -14 0 -19 -2 -12 -5z"/>
<path d="M1505 79 c124 -26 333 -41 645 -46 342 -5 495 2 740 34 179 24 130
28 -68 6 -232 -25 -931 -25 -1162 0 -165 18 -220 20 -155 6z"/>
<path d="M3115 75 c-33 -7 -49 -13 -35 -13 14 -1 52 5 85 12 33 8 49 14 35 14
-14 0 -52 -6 -85 -13z"/>
<path d="M1340 64 c36 -7 97 -15 135 -18 50 -4 36 0 -50 14 -136 22 -183 24
-85 4z"/>
<path d="M2930 49 c-150 -22 -316 -32 -645 -39 l-360 -8 370 4 c204 1 417 8
475 14 145 15 292 37 250 37 -19 0 -60 -3 -90 -8z"/>
<path d="M1595 30 c51 -8 162 -13 154 -6 -2 2 -49 6 -104 9 -69 3 -85 3 -50
-3z"/>
<path d="M1798 13 c23 -2 59 -2 80 0 20 2 1 4 -43 4 -44 0 -61 -2 -37 -4z"/>
</g>
</svg>
